<?xml version="1.0" encoding="UTF-8"?><svg id="Layer_2" xmlns="http://www.w3.org/2000/svg" viewBox="0 0 25.6 37.013"><defs><style>.cls-1{fill:#fff;stroke:#140909;stroke-miterlimit:10;}</style></defs><g id="OBJECTS"><path class="cls-1" d="M6.33,1.635c-.005-.082-.004-.163-.012-.245-.055-.619-.792-1.087-1.371-.808-1.283.618-2.003,1.759-2.246,3.145-.167.953-.332,2.626.598,3.245.402.442,1.187.585,1.612-.063.013-.02.023-.04.036-.06.583-.458,1.011-1.268,1.235-1.865.411-1.094.43-2.236.147-3.349Z"/><path class="cls-1" d="M8.756,6.707c-1.668.098-2.083,2.304-2.127,3.936-.18,1.156-.117,2.352.728,2.87,1.741,1.066,2.639-1.947,2.856-3.113.218-1.171.432-3.804-1.457-3.693Z"/><path class="cls-1" d="M15.792,3.91c-.752.607-1.163,1.871-1.441,2.762-.342,1.098-.449,2.199-.429,3.344.014.806.819,1.031,1.401.766,1.931.765,2.834-2.181,2.948-3.549.1-1.196-.487-4.929-2.479-3.322Z"/><path class="cls-1" d="M13.39,16.286c-.569-1.02-1.919-1.036-2.61-.142-.493.638-.592,1.527-.719,2.294-.18,1.084-.274,2.17-.309,3.269-.007.207.052.367.134.505.026.567.39,1.078,1.043,1.031,1.386-.099,2.091-1.251,2.4-2.495.304-1.221.718-3.286.062-4.461Z"/><path class="cls-1" d="M2.938,14.435c-1.476-.304-2.024,1.513-2.258,2.592-.33,1.522-.195,3.062.294,4.533.141.423.463.614.804.647.019.024.032.049.051.073.419.502,1.456.663,1.724-.123.529-1.55.831-3.127.768-4.771-.039-1.023-.104-2.687-1.384-2.951Z"/><path class="cls-1" d="M7.966,28.825c-.327-1.212-1.744-1.602-2.587-.635-.727.833-1.01,2.122-1.114,3.345-.347,1.332-.385,2.715-.088,4.075.144.66.652,1.043,1.336.855.029-.008.053-.021.081-.03.115-.002.232-.012.356-.058.592-.223.952-.665,1.191-1.19.246-.402.424-.857.544-1.33.359-1.407.663-3.611.281-5.031Z"/><path class="cls-1" d="M16.219,24.892c-.965.462-1.426,1.996-1.735,2.939-.418,1.272-.54,2.564-.494,3.883-.084,1.01.104,1.89.83,2.307,2.111,1.21,3.455-3.231,3.667-4.564.201-1.26.156-5.725-2.268-4.564Z"/><path class="cls-1" d="M23.805,13.978c-.35-.224-.946-.083-1.196.236-.968,1.239-1.606,2.617-1.868,4.119-.138.521-.237,1.002-.305,1.36-.268,1.41-.314,3.693,1.805,3.391,1.854-.264,2.315-2.404,2.559-3.921.292-1.823.815-4.027-.994-5.186Z"/></g></svg>